<?xml version="1.0" standalone="no"?>
<!DOCTYPE svg PUBLIC "-//W3C//DTD SVG 20010904//EN"
 "http://www.w3.org/TR/2001/REC-SVG-20010904/DTD/svg10.dtd">
<svg version="1.0" xmlns="http://www.w3.org/2000/svg"
 width="500.000000pt" height="500.000000pt" viewBox="0 0 500.000000 500.000000"
 preserveAspectRatio="xMidYMid meet">
<metadata>
Created by potrace 1.14, written by Peter Selinger 2001-2017
</metadata>
<g transform="translate(0.000000,500.000000) scale(0.100000,-0.100000)"
fill="#000000" stroke="none">
<path d="M991 4831 c-15 -10 -143 -695 -139 -746 l3 -30 110 -5 c90 -4 110 -8
108 -20 -1 -8 -16 -94 -33 -189 l-31 -175 263 -263 262 -262 89 -3 90 -3 -278
-285 c-153 -157 -438 -448 -632 -647 l-354 -362 -63 -368 c-43 -250 -61 -374
-54 -385 7 -15 24 -18 113 -18 58 0 105 -3 105 -6 0 -3 -14 -89 -31 -191 l-31
-186 258 -258 259 -259 1497 0 c824 0 1498 1 1498 3 1 1 36 205 78 454 l78
452 -261 261 -262 260 -176 0 c-98 0 -177 3 -177 8 0 4 7 55 17 114 19 118 14
134 -36 140 -25 3 15 47 466 508 272 278 564 578 649 667 l155 162 76 426 76
426 -264 265 -264 264 -176 0 -176 0 20 114 c17 95 18 118 7 130 -11 14 -159
16 -1419 16 -785 0 -1412 -4 -1420 -9z m2759 -86 c0 -12 -10 -69 -26 -142 -4
-21 -10 -23 -64 -23 -49 0 -61 -3 -70 -20 -6 -11 -17 -20 -25 -20 -8 0 -19 9
-25 20 -9 17 -21 20 -78 20 -56 0 -69 -3 -80 -20 -7 -11 -19 -20 -27 -20 -8 0
-19 9 -25 20 -9 17 -21 20 -78 20 -56 0 -69 -3 -80 -20 -7 -11 -19 -20 -27
-20 -8 0 -19 9 -25 20 -9 17 -21 20 -79 20 -60 0 -69 -2 -74 -20 -3 -12 -14
-20 -25 -20 -12 0 -23 9 -27 20 -6 17 -15 20 -75 20 -59 0 -71 -3 -80 -20 -6
-11 -17 -20 -25 -20 -8 0 -20 9 -27 20 -11 17 -24 20 -80 20 -57 0 -69 -3 -78
-20 -6 -11 -17 -20 -25 -20 -8 0 -19 9 -25 20 -9 17 -21 20 -80 20 -59 0 -71
-3 -80 -20 -6 -11 -17 -20 -25 -20 -8 0 -19 9 -25 20 -9 17 -21 20 -78 20 -56
0 -69 -3 -80 -20 -7 -11 -19 -20 -27 -20 -8 0 -19 9 -25 20 -9 17 -21 20 -78
20 -56 0 -69 -3 -80 -20 -7 -11 -19 -20 -27 -20 -8 0 -19 9 -25 20 -9 17 -21
20 -79 20 -60 0 -69 -2 -74 -20 -3 -12 -14 -20 -27 -20 -13 0 -24 8 -27 20 -5
18 -14 20 -78 20 -64 0 -73 -2 -78 -20 -3 -11 -12 -20 -21 -20 -9 0 -21 9 -28
20 -11 17 -24 20 -84 20 -63 0 -72 -2 -77 -20 -3 -11 -12 -20 -21 -20 -9 0
-21 9 -28 20 -8 13 -24 20 -44 20 -27 0 -32 -4 -38 -31 -9 -49 -8 -56 15 -62
28 -8 21 -39 -11 -47 -23 -5 -26 -14 -50 -150 -14 -80 -29 -150 -33 -156 -4
-8 -30 -10 -74 -7 -38 3 -69 7 -71 8 -2 2 0 23 3 48 5 33 12 47 26 50 22 6 25
30 6 45 -11 9 -5 55 29 244 23 128 43 234 43 236 1 1 609 2 1351 2 1173 0
1350 -2 1350 -15z m-2345 -265 c3 -5 40 -10 81 -10 43 0 74 4 74 10 0 6 11 10
25 10 14 0 25 -4 25 -10 0 -6 33 -10 80 -10 47 0 80 4 80 10 0 6 11 10 25 10
14 0 25 -4 25 -10 0 -14 136 -12 160 2 16 10 24 10 40 0 26 -16 144 -16 170 0
16 10 24 10 40 0 11 -6 49 -12 85 -12 36 0 74 6 85 12 16 10 24 10 40 0 11 -6
49 -12 85 -12 36 0 74 6 85 12 16 10 24 10 40 0 24 -14 156 -16 165 -2 3 6 15
10 26 10 10 0 19 -4 19 -10 0 -6 33 -10 80 -10 47 0 80 4 80 10 0 6 11 10 25
10 14 0 25 -4 25 -10 0 -14 136 -12 160 2 16 10 24 10 40 0 26 -16 144 -16
170 0 16 10 24 10 40 0 24 -14 156 -16 165 -2 9 15 42 12 48 -4 3 -7 -9 -93
-26 -191 l-31 -177 -265 -272 c-146 -149 -419 -427 -608 -618 l-342 -348 -171
0 -172 0 69 74 c39 41 84 86 101 101 17 14 41 41 52 60 12 19 28 35 36 35 8 0
14 4 14 9 0 6 55 65 123 133 68 68 126 131 130 141 4 9 17 21 30 26 13 5 31
20 39 33 9 14 71 78 137 144 67 65 121 125 121 132 0 9 -46 12 -207 11 -115 0
-223 0 -242 0 -34 1 -34 1 112 150 81 83 147 157 147 165 0 46 17 45 -780 44
-413 0 -753 1 -755 4 -3 2 7 67 20 144 38 214 30 194 80 194 24 0 47 5 50 10
3 6 15 10 25 10 10 0 22 -4 25 -10z m2631 -37 c-3 -16 -31 -170 -61 -343 -31
-173 -59 -323 -63 -332 -4 -9 -202 -215 -440 -457 l-434 -441 -240 0 -240 0
27 33 c15 17 235 245 489 506 253 261 502 518 551 570 l91 96 34 198 33 197
129 0 130 0 -6 -27z m-2842 -172 c10 -16 -5 -41 -24 -41 -23 0 -34 16 -26 35
6 16 42 20 50 6z m1266 -366 l-135 -135 -592 0 c-452 0 -593 3 -593 12 0 6 10
67 22 135 l21 123 706 0 706 0 -135 -135z m-585 -775 c-4 -6 5 -10 20 -10 15
0 24 4 20 10 -4 7 42 10 134 9 l139 -2 -776 -795 -777 -795 -33 -190 c-18
-106 -35 -193 -37 -195 -1 -2 -38 -6 -81 -9 -71 -6 -77 -5 -71 11 4 10 7 24 7
32 0 8 6 14 14 14 7 0 20 7 27 16 11 14 10 19 -8 33 -20 17 -20 20 -7 87 8 38
16 85 19 104 44 278 48 300 61 289 21 -17 46 -3 42 23 -2 17 -9 23 -26 22 -12
0 -21 4 -19 10 2 6 296 311 653 678 545 559 653 666 677 667 16 1 26 -3 22 -9z
m360 -330 c0 -18 -6 -26 -23 -28 -24 -4 -38 18 -28 44 3 9 15 14 28 12 17 -2
23 -10 23 -28z m-205 -11 c-6 -10 -20 -19 -32 -19 -21 0 -21 0 2 25 26 27 46
24 30 -6z m97 -71 c17 -23 9 -43 -19 -46 -24 -3 -28 0 -28 21 0 37 27 51 47
25z m-199 -25 c-2 -10 -14 -19 -28 -21 l-25 -4 20 20 c25 26 37 27 33 5z m102
-98 c0 -31 -26 -43 -47 -22 -21 21 -9 47 22 47 20 0 25 -5 25 -25z m-210 -16
c-6 -10 -17 -19 -25 -19 -19 0 -19 9 1 31 21 23 38 14 24 -12z m105 -89 c0
-18 -6 -26 -23 -28 -13 -2 -25 3 -28 12 -10 26 4 48 28 44 17 -2 23 -10 23
-28z m-208 -15 c-4 -8 -14 -15 -23 -15 -16 0 -16 2 1 20 20 22 31 20 22 -5z
m103 -89 c0 -29 -24 -40 -44 -20 -20 20 -9 44 20 44 19 0 24 -5 24 -24z m-206
-10 c-6 -16 -34 -30 -34 -18 0 5 5 13 12 20 16 16 29 15 22 -2z m101 -96 c0
-18 -6 -26 -23 -28 -13 -2 -25 3 -28 12 -10 26 4 48 28 44 17 -2 23 -10 23
-28z m-208 -15 c-4 -8 -14 -15 -23 -15 -16 0 -16 2 1 20 20 22 31 20 22 -5z
m97 -70 c20 -21 10 -45 -20 -45 -19 0 -24 5 -24 24 0 13 6 27 13 29 6 3 13 6
14 6 1 1 8 -6 17 -14z m-199 -34 c-3 -6 -11 -11 -17 -11 -6 0 -6 6 2 15 14 17
26 13 15 -4z m103 -87 c4 -27 -26 -40 -46 -20 -21 20 -8 48 20 44 14 -2 24
-11 26 -24z m-216 -26 c-7 -7 -12 -8 -12 -2 0 6 3 14 7 17 3 4 9 5 12 2 2 -3
-1 -11 -7 -17z m103 -79 c0 -15 -7 -25 -18 -27 -22 -4 -33 24 -17 43 18 21 35
13 35 -16z m-201 -14 c-4 -8 -11 -15 -16 -15 -6 0 -5 6 2 15 7 8 14 15 16 15
2 0 1 -7 -2 -15z m76 -75 c0 -5 -5 -10 -11 -10 -5 0 -7 5 -4 10 3 6 8 10 11
10 2 0 4 -4 4 -10z m25 0 c3 -5 1 -10 -4 -10 -6 0 -11 5 -11 10 0 6 2 10 4 10
3 0 8 -4 11 -10z m-25 -30 c0 -5 -4 -10 -10 -10 -5 0 -10 5 -10 10 0 6 5 10
10 10 6 0 10 -4 10 -10z m30 6 c0 -3 -4 -8 -10 -11 -5 -3 -10 -1 -10 4 0 6 5
11 10 11 6 0 10 -2 10 -4z m-112 -89 c3 -12 -4 -17 -22 -17 -28 0 -33 9 -14
28 15 15 32 10 36 -11z m192 19 c0 -2 -8 -10 -17 -17 -16 -13 -17 -12 -4 4 13
16 21 21 21 13z m1840 -18 c0 -7 -5 -48 -12 -90 l-11 -78 -111 0 -111 0 90 90
c76 77 94 90 122 90 20 0 33 -5 33 -12z"/>
<path d="M1875 3100 c3 -5 15 -10 26 -10 10 0 19 5 19 10 0 6 -12 10 -26 10
-14 0 -23 -4 -19 -10z"/>
<path d="M1781 3030 c-19 -11 -9 -45 14 -45 13 0 21 8 23 21 3 23 -17 37 -37
24z"/>
<path d="M1664 2915 c-4 -9 -2 -21 4 -27 16 -16 47 -5 47 17 0 26 -42 34 -51
10z"/>
<path d="M1874 2915 c-8 -19 3 -35 26 -35 19 0 30 17 23 38 -6 17 -42 15 -49
-3z"/>
<path d="M1564 2816 c-9 -24 4 -48 23 -44 12 2 18 12 18 28 0 29 -32 41 -41
16z"/>
<path d="M1774 2816 c-9 -24 4 -48 23 -44 12 2 18 12 18 28 0 29 -32 41 -41
16z"/>
<path d="M1460 2710 c0 -5 12 -10 26 -10 14 0 23 4 19 10 -3 6 -15 10 -26 10
-10 0 -19 -4 -19 -10z"/>
<path d="M1665 2710 c-4 -6 7 -10 25 -10 18 0 29 4 25 10 -3 6 -15 10 -25 10
-10 0 -22 -4 -25 -10z"/>
<path d="M1460 2680 c0 -5 9 -10 19 -10 11 0 23 5 26 10 4 6 -5 10 -19 10 -14
0 -26 -4 -26 -10z"/>
<path d="M1665 2680 c3 -5 15 -10 25 -10 10 0 22 5 25 10 4 6 -7 10 -25 10
-18 0 -29 -4 -25 -10z"/>
<path d="M1354 2606 c-8 -21 13 -46 32 -39 20 8 13 47 -9 51 -9 2 -20 -4 -23
-12z"/>
<path d="M1567 2614 c-4 -4 -7 -16 -7 -26 0 -13 7 -18 26 -18 21 0 25 4 22 22
-3 23 -27 35 -41 22z"/>
<path d="M1465 2504 c-15 -15 -15 -19 -1 -32 17 -17 46 -10 46 11 0 8 -6 20
-14 26 -11 9 -18 8 -31 -5z"/>
<path d="M1250 2491 c0 -11 5 -23 10 -26 6 -4 10 5 10 19 0 14 -4 26 -10 26
-5 0 -10 -9 -10 -19z"/>
<path d="M1280 2484 c0 -14 4 -23 10 -19 6 3 10 15 10 26 0 10 -4 19 -10 19
-5 0 -10 -12 -10 -26z"/>
<path d="M1144 2395 c-8 -20 4 -35 26 -35 23 0 32 13 24 34 -8 20 -43 21 -50
1z"/>
<path d="M1354 2395 c-8 -20 4 -35 27 -35 14 0 19 7 19 25 0 18 -5 25 -20 25
-11 0 -23 -7 -26 -15z"/>
<path d="M1044 2296 c-9 -24 4 -48 23 -44 12 2 18 12 18 28 0 29 -32 41 -41
16z"/>
<path d="M1255 2298 c-4 -10 -4 -26 0 -35 8 -17 8 -17 12 0 3 9 3 25 0 35 -4
16 -4 16 -12 0z"/>
<path d="M1280 2280 c0 -18 4 -29 10 -25 6 3 10 15 10 25 0 10 -4 22 -10 25
-6 4 -10 -7 -10 -25z"/>
<path d="M936 2191 c-11 -18 6 -42 28 -39 29 4 29 42 -1 46 -11 2 -24 -1 -27
-7z"/>
<path d="M1144 2185 c-8 -19 3 -35 26 -35 19 0 34 25 24 41 -8 14 -44 10 -50
-6z"/>
<path d="M837 2093 c-11 -10 -8 -43 3 -43 6 0 10 11 10 25 0 26 -2 29 -13 18z"/>
<path d="M860 2076 c0 -14 5 -26 10 -26 6 0 10 9 10 19 0 11 -4 23 -10 26 -6
4 -10 -5 -10 -19z"/>
<path d="M1047 2094 c-12 -12 -8 -42 6 -47 21 -8 39 8 35 29 -3 19 -29 30 -41
18z"/>
<path d="M732 1968 c2 -15 10 -23 23 -23 30 0 27 39 -3 43 -20 3 -23 0 -20
-20z"/>
<path d="M935 1980 c-10 -17 20 -44 40 -36 9 3 15 14 13 23 -4 21 -43 30 -53
13z"/>
<path d="M625 1880 c-4 -6 5 -10 19 -10 14 0 26 5 26 10 0 6 -9 10 -19 10 -11
0 -23 -4 -26 -10z"/>
<path d="M835 1880 c-3 -5 -1 -10 4 -10 6 0 11 5 11 10 0 6 -2 10 -4 10 -3 0
-8 -4 -11 -10z"/>
<path d="M860 1880 c0 -5 5 -10 11 -10 5 0 7 5 4 10 -3 6 -8 10 -11 10 -2 0
-4 -4 -4 -10z"/>
<path d="M625 1850 c3 -5 15 -10 26 -10 10 0 19 5 19 10 0 6 -12 10 -26 10
-14 0 -23 -4 -19 -10z"/>
<path d="M835 1850 c3 -5 8 -10 11 -10 2 0 4 5 4 10 0 6 -5 10 -11 10 -5 0 -7
-4 -4 -10z"/>
<path d="M860 1850 c0 -5 5 -10 10 -10 6 0 10 5 10 10 0 6 -4 10 -10 10 -5 0
-10 -4 -10 -10z"/>
<path d="M737 1783 c-10 -9 -8 -41 2 -47 16 -10 41 5 41 24 0 10 -7 21 -16 24
-19 7 -19 7 -27 -1z"/>
<path d="M624 1665 c-8 -19 3 -35 26 -35 19 0 30 17 23 38 -6 17 -42 15 -49
-3z"/>
<path d="M527 1574 c-12 -12 -8 -42 6 -47 21 -8 39 8 35 29 -3 19 -29 30 -41
18z"/>
<path d="M527 1364 c-4 -4 -7 -16 -7 -26 0 -14 6 -19 23 -16 14 2 22 10 22 23
0 20 -25 32 -38 19z"/>
<path d="M3124 1665 c-8 -19 3 -35 26 -35 19 0 30 17 23 38 -6 17 -42 15 -49
-3z"/>
</g>
</svg>
